<mxfile host="65bd71144e">
    <diagram id="ihTDylxQH8QiVcggfINi" name="Page-1">
        <mxGraphModel dx="44" dy="-2718" grid="1" gridSize="10" guides="1" tooltips="1" connect="1" arrows="1" fold="1" page="1" pageScale="1" pageWidth="850" pageHeight="1100" math="0" shadow="0">
            <root>
                <mxCell id="0"/>
                <mxCell id="1" parent="0"/>
                <mxCell id="2" value="Export Structure" style="swimlane;whiteSpace=wrap;html=1;shadow=0;dashed=0;strokeWidth=1;align=center;verticalAlign=top;fontFamily=Helvetica;fontSize=12;fontColor=#FFFFFF;fillColor=#660000;movable=1;resizable=1;rotatable=1;deletable=1;editable=1;locked=0;connectable=1;strokeColor=#666666;swimlaneFillColor=#FFFFFF;" vertex="1" parent="1">
                    <mxGeometry x="1320" y="3697" width="280" height="120" as="geometry"/>
                </mxCell>
                <mxCell id="3" value="" style="shape=image;verticalLabelPosition=bottom;labelBackgroundColor=default;verticalAlign=top;aspect=fixed;imageAspect=0;image=data:image/svg+xml,PHN2ZyB4bWxucz0iaHR0cDovL3d3dy53My5vcmcvMjAwMC9zdmciIHZpZXdCb3g9IjAgMCAzODQgNTEyIj48cGF0aCBkPSJNMzQyLjYgMTUwLjZjMTIuNS0xMi41IDEyLjUtMzIuOCAwLTQ1LjNzLTMyLjgtMTIuNS00NS4zIDBMMTkyIDIxMC43IDg2LjYgMTA1LjRjLTEyLjUtMTIuNS0zMi44LTEyLjUtNDUuMyAwcy0xMi41IDMyLjggMCA0NS4zTDE0Ni43IDI1NiA0MS40IDM2MS40Yy0xMi41IDEyLjUtMTIuNSAzMi44IDAgNDUuM3MzMi44IDEyLjUgNDUuMyAwTDE5MiAzMDEuMyAyOTcuNCA0MDYuNmMxMi41IDEyLjUgMzIuOCAxMi41IDQ1LjMgMHMxMi41LTMyLjggMC00NS4zTDIzNy4zIDI1NiAzNDIuNiAxNTAuNnoiIGZpbGw9IiM2NjAwMDAiLz48L3N2Zz4=;movable=1;resizable=1;rotatable=1;deletable=1;editable=1;locked=0;connectable=1;" vertex="1" parent="2">
                    <mxGeometry x="220" y="91.00000000000045" width="18.75" height="25" as="geometry"/>
                </mxCell>
                <mxCell id="4" value="" style="shape=image;verticalLabelPosition=bottom;labelBackgroundColor=default;verticalAlign=top;aspect=fixed;imageAspect=0;image=data:image/svg+xml,PHN2ZyB4bWxucz0iaHR0cDovL3d3dy53My5vcmcvMjAwMC9zdmciIHZpZXdCb3g9IjAgMCA0NDggNTEyIj48cGF0aCBkPSJNNDM4LjYgMTA1LjRjMTIuNSAxMi41IDEyLjUgMzIuOCAwIDQ1LjNsLTI1NiAyNTZjLTEyLjUgMTIuNS0zMi44IDEyLjUtNDUuMyAwbC0xMjgtMTI4Yy0xMi41LTEyLjUtMTIuNS0zMi44IDAtNDUuM3MzMi44LTEyLjUgNDUuMyAwTDE2MCAzMzguNyAzOTMuNCAxMDUuNGMxMi41LTEyLjUgMzIuOC0xMi41IDQ1LjMgMHoiIGZpbGw9IiM2NjAwMDAiLz48L3N2Zz4=;movable=1;resizable=1;rotatable=1;deletable=1;editable=1;locked=0;connectable=1;" vertex="1" parent="2">
                    <mxGeometry x="250.62" y="91" width="21.88" height="25" as="geometry"/>
                </mxCell>
                <mxCell id="5" value="" style="shape=image;verticalLabelPosition=bottom;labelBackgroundColor=default;verticalAlign=top;aspect=fixed;imageAspect=0;image=data:image/svg+xml,PHN2ZyB4bWxucz0iaHR0cDovL3d3dy53My5vcmcvMjAwMC9zdmciIHZpZXdCb3g9IjAgMCA1NzYgNTEyIj48cGF0aCBkPSJNMTkyIDY0Qzg2IDY0IDAgMTUwIDAgMjU2Uzg2IDQ0OCAxOTIgNDQ4bDE5MiAwYzEwNiAwIDE5Mi04NiAxOTItMTkycy04Ni0xOTItMTkyLTE5MkwxOTIgNjR6bTE5MiA5NmE5NiA5NiAwIDEgMSAwIDE5MiA5NiA5NiAwIDEgMSAwLTE5MnoiIGZpbGw9IiM2NjAwMDAiLz48L3N2Zz4=;" vertex="1" parent="2">
                    <mxGeometry x="105.61999999999989" y="30" width="16.88" height="15" as="geometry"/>
                </mxCell>
                <mxCell id="6" value="md" style="rounded=0;whiteSpace=wrap;html=1;shadow=0;dashed=0;strokeWidth=1;align=left;verticalAlign=top;fontFamily=Helvetica;fontSize=8;fontColor=#4D4D4D;fillColor=none;spacingLeft=5;strokeColor=none;spacing=0;spacingTop=-2;" vertex="1" parent="2">
                    <mxGeometry x="122.5" y="44" width="90" height="15" as="geometry"/>
                </mxCell>
                <mxCell id="7" value="" style="shape=image;verticalLabelPosition=bottom;labelBackgroundColor=default;verticalAlign=top;aspect=fixed;imageAspect=0;image=data:image/svg+xml,PHN2ZyB4bWxucz0iaHR0cDovL3d3dy53My5vcmcvMjAwMC9zdmciIHZpZXdCb3g9IjAgMCA1NzYgNTEyIj48cGF0aCBkPSJNMzg0IDEyOGM3MC43IDAgMTI4IDU3LjMgMTI4IDEyOHMtNTcuMyAxMjgtMTI4IDEyOGwtMTkyIDBjLTcwLjcgMC0xMjgtNTcuMy0xMjgtMTI4czU3LjMtMTI4IDEyOC0xMjhsMTkyIDB6TTU3NiAyNTZjMC0xMDYtODYtMTkyLTE5Mi0xOTJMMTkyIDY0Qzg2IDY0IDAgMTUwIDAgMjU2Uzg2IDQ0OCAxOTIgNDQ4bDE5MiAwYzEwNiAwIDE5Mi04NiAxOTItMTkyek0xOTIgMzUyYTk2IDk2IDAgMSAwIDAtMTkyIDk2IDk2IDAgMSAwIDAgMTkyeiIgZmlsbD0iIzZjNzY3ZCIvPjwvc3ZnPg==;" vertex="1" parent="2">
                    <mxGeometry x="105.62" y="45" width="16.88" height="15" as="geometry"/>
                </mxCell>
                <mxCell id="8" value="html" style="rounded=0;whiteSpace=wrap;html=1;shadow=0;dashed=0;strokeWidth=1;align=left;verticalAlign=top;fontFamily=Helvetica;fontSize=8;fontColor=#4D4D4D;fillColor=none;spacingLeft=5;strokeColor=none;spacing=0;spacingTop=-2;" vertex="1" parent="2">
                    <mxGeometry x="122.5" y="30" width="90" height="15" as="geometry"/>
                </mxCell>
                <mxCell id="9" value="" style="shape=image;verticalLabelPosition=bottom;labelBackgroundColor=default;verticalAlign=top;aspect=fixed;imageAspect=0;image=data:image/svg+xml,PHN2ZyB4bWxucz0iaHR0cDovL3d3dy53My5vcmcvMjAwMC9zdmciIHZpZXdCb3g9IjAgMCA1NzYgNTEyIj48cGF0aCBkPSJNMTkyIDY0Qzg2IDY0IDAgMTUwIDAgMjU2Uzg2IDQ0OCAxOTIgNDQ4bDE5MiAwYzEwNiAwIDE5Mi04NiAxOTItMTkycy04Ni0xOTItMTkyLTE5MkwxOTIgNjR6bTE5MiA5NmE5NiA5NiAwIDEgMSAwIDE5MiA5NiA5NiAwIDEgMSAwLTE5MnoiIGZpbGw9IiM2NjAwMDAiLz48L3N2Zz4=;" vertex="1" parent="2">
                    <mxGeometry x="29.999999999999886" y="30" width="16.88" height="15" as="geometry"/>
                </mxCell>
                <mxCell id="10" value="numbers" style="rounded=0;whiteSpace=wrap;html=1;shadow=0;dashed=0;strokeWidth=1;align=left;verticalAlign=top;fontFamily=Helvetica;fontSize=8;fontColor=#4D4D4D;fillColor=none;spacingLeft=5;strokeColor=none;spacing=0;spacingTop=-2;" vertex="1" parent="2">
                    <mxGeometry x="46.879999999999995" y="31" width="90" height="13" as="geometry"/>
                </mxCell>
                <mxCell id="11" value="Export Structure" style="swimlane;whiteSpace=wrap;html=1;shadow=0;dashed=0;strokeWidth=1;align=center;verticalAlign=top;fontFamily=Helvetica;fontSize=12;fontColor=#FFFFFF;fillColor=#660000;movable=1;resizable=1;rotatable=1;deletable=1;editable=1;locked=0;connectable=1;strokeColor=#666666;swimlaneFillColor=#FFFFFF;" vertex="1" parent="1">
                    <mxGeometry x="1320" y="3827" width="280" height="120" as="geometry"/>
                </mxCell>
                <mxCell id="12" value="" style="shape=image;verticalLabelPosition=bottom;labelBackgroundColor=default;verticalAlign=top;aspect=fixed;imageAspect=0;image=data:image/svg+xml,PHN2ZyB4bWxucz0iaHR0cDovL3d3dy53My5vcmcvMjAwMC9zdmciIHZpZXdCb3g9IjAgMCAzODQgNTEyIj48cGF0aCBkPSJNMzQyLjYgMTUwLjZjMTIuNS0xMi41IDEyLjUtMzIuOCAwLTQ1LjNzLTMyLjgtMTIuNS00NS4zIDBMMTkyIDIxMC43IDg2LjYgMTA1LjRjLTEyLjUtMTIuNS0zMi44LTEyLjUtNDUuMyAwcy0xMi41IDMyLjggMCA0NS4zTDE0Ni43IDI1NiA0MS40IDM2MS40Yy0xMi41IDEyLjUtMTIuNSAzMi44IDAgNDUuM3MzMi44IDEyLjUgNDUuMyAwTDE5MiAzMDEuMyAyOTcuNCA0MDYuNmMxMi41IDEyLjUgMzIuOCAxMi41IDQ1LjMgMHMxMi41LTMyLjggMC00NS4zTDIzNy4zIDI1NiAzNDIuNiAxNTAuNnoiIGZpbGw9IiM2NjAwMDAiLz48L3N2Zz4=;movable=1;resizable=1;rotatable=1;deletable=1;editable=1;locked=0;connectable=1;" vertex="1" parent="11">
                    <mxGeometry x="253.75" y="91.00000000000045" width="18.75" height="25" as="geometry"/>
                </mxCell>
                <mxCell id="13" value="AtlasExport_BikeTestRfp.zip" style="rounded=1;whiteSpace=wrap;html=1;shadow=0;dashed=0;strokeWidth=1;align=left;verticalAlign=top;fontFamily=Helvetica;fontSize=8;fontColor=#333333;fillColor=default;strokeColor=none;spacingLeft=7;" vertex="1" parent="11">
                    <mxGeometry x="50.860000000000014" y="50" width="190" height="22.5" as="geometry"/>
                </mxCell>
                <mxCell id="14" value="" style="shape=image;verticalLabelPosition=bottom;labelBackgroundColor=default;verticalAlign=top;aspect=fixed;imageAspect=0;image=data:image/svg+xml,PHN2ZyB4bWxucz0iaHR0cDovL3d3dy53My5vcmcvMjAwMC9zdmciIHZpZXdCb3g9IjAgMCA1MTIgNTEyIj48cGF0aCBkPSJNMjg4IDMyYzAtMTcuNy0xNC4zLTMyLTMyLTMycy0zMiAxNC4zLTMyIDMybDAgMjQyLjctNzMuNC03My40Yy0xMi41LTEyLjUtMzIuOC0xMi41LTQ1LjMgMHMtMTIuNSAzMi44IDAgNDUuM2wxMjggMTI4YzEyLjUgMTIuNSAzMi44IDEyLjUgNDUuMyAwbDEyOC0xMjhjMTIuNS0xMi41IDEyLjUtMzIuOCAwLTQ1LjNzLTMyLjgtMTIuNS00NS4zIDBMMjg4IDI3NC43IDI4OCAzMnpNNjQgMzUyYy0zNS4zIDAtNjQgMjguNy02NCA2NGwwIDMyYzAgMzUuMyAyOC43IDY0IDY0IDY0bDM4NCAwYzM1LjMgMCA2NC0yOC43IDY0LTY0bDAtMzJjMC0zNS4zLTI4LjctNjQtNjQtNjRsLTEwMS41IDAtNDUuMyA0NS4zYy0yNSAyNS02NS41IDI1LTkwLjUgMEwxNjUuNSAzNTIgNjQgMzUyem0zNjggNTZhMjQgMjQgMCAxIDEgMCA0OCAyNCAyNCAwIDEgMSAwLTQ4eiIgZmlsbD0iIzY2MDAwMCIvPjwvc3ZnPg==;" vertex="1" parent="11">
                    <mxGeometry x="196" y="52.5" width="15" height="15" as="geometry"/>
                </mxCell>
                <mxCell id="15" value="&lt;b&gt;Contents&lt;/b&gt;:&lt;div&gt;&lt;ul style=&quot;margin-top: 0px; margin-bottom: 0px;&quot;&gt;&lt;li&gt;manifest&lt;/li&gt;&lt;ul&gt;&lt;li&gt;version&lt;/li&gt;&lt;li&gt;file list&lt;/li&gt;&lt;li&gt;UTC timestamp&lt;/li&gt;&lt;/ul&gt;&lt;li&gt;chained documents&lt;/li&gt;&lt;/ul&gt;&lt;/div&gt;" style="text;html=1;align=left;verticalAlign=top;whiteSpace=wrap;rounded=0;" vertex="1" parent="1">
                    <mxGeometry x="1350.04" y="3957" width="230" height="118.57" as="geometry"/>
                </mxCell>
            </root>
        </mxGraphModel>
    </diagram>
</mxfile>